<?xml version="1.0" encoding="utf-8"?>
<!-- Generator: Adobe Illustrator 16.0.0, SVG Export Plug-In . SVG Version: 6.00 Build 0)  -->
<!DOCTYPE svg PUBLIC "-//W3C//DTD SVG 1.1//EN" "http://www.w3.org/Graphics/SVG/1.1/DTD/svg11.dtd">
<svg version="1.1" id="Layer_1" xmlns="http://www.w3.org/2000/svg" xmlns:xlink="http://www.w3.org/1999/xlink" x="0px" y="0px"
	 width="524.289px" height="132.293px" viewBox="0 0 524.289 132.293" enable-background="new 0 0 524.289 132.293"
	 xml:space="preserve">
<g id="Layer_1_1_" display="none">
	<g display="inline">
		<path d="M118.79,59.061c-4.931,4.115-11.973,6.172-21.126,6.172H80.125v30.289H62.637V11.285h36.168
			c8.339,0,14.987,2.171,19.944,6.515c4.958,4.343,7.437,11.067,7.437,20.173C126.187,47.917,123.721,54.946,118.79,59.061z
			 M105.355,28.715c-2.229-1.866-5.351-2.8-9.368-2.8H80.125v24.803h15.863c4.017,0,7.139-1.009,9.368-3.029s3.344-5.22,3.344-9.601
			C108.699,33.707,107.583,30.582,105.355,28.715z"/>
		<path d="M145.196,11.285h19.916l29.803,84.236h-19.087l-5.559-17.315h-31.021l-5.71,17.315h-18.411L145.196,11.285z
			 M144.036,63.69h21.574l-10.641-33.146L144.036,63.69z"/>
		<path d="M210.125,69.52c0.544,3.85,1.614,6.726,3.208,8.629c2.917,3.469,7.916,5.201,14.997,5.201
			c4.239,0,7.683-0.457,10.328-1.373c5.019-1.75,7.527-5.008,7.527-9.771c0-2.78-1.229-4.935-3.687-6.458
			c-2.459-1.486-6.358-2.801-11.695-3.943l-9.12-2c-8.964-1.979-15.122-4.133-18.473-6.458c-5.678-3.886-8.515-9.963-8.515-18.229
			c0-7.545,2.776-13.811,8.33-18.803c5.554-4.99,13.711-7.486,24.472-7.486c8.986,0,16.651,2.353,22.996,7.058
			c6.345,4.706,9.671,11.535,9.98,20.488h-16.916c-0.312-5.066-2.578-8.667-6.796-10.802c-2.812-1.408-6.308-2.113-10.487-2.113
			c-4.649,0-8.359,0.914-11.132,2.743c-2.774,1.828-4.16,4.381-4.16,7.657c0,3.011,1.367,5.259,4.102,6.744
			c1.757,0.991,5.487,2.152,11.191,3.486l14.783,3.486c6.479,1.523,11.335,3.562,14.569,6.114c5.021,3.963,7.532,9.696,7.532,17.203
			c0,7.695-2.976,14.086-8.925,19.172c-5.95,5.088-14.354,7.631-25.214,7.631c-11.09,0-19.812-2.506-26.167-7.517
			c-6.354-5.009-9.53-11.895-9.53-20.659H210.125L210.125,69.52z"/>
		<path d="M284.68,69.52c0.545,3.85,1.614,6.726,3.209,8.629c2.918,3.469,7.916,5.201,14.996,5.201
			c4.239,0,7.684-0.457,10.327-1.373c5.021-1.75,7.528-5.008,7.528-9.771c0-2.78-1.229-4.935-3.688-6.458
			c-2.459-1.486-6.356-2.801-11.694-3.943l-9.119-2c-8.963-1.979-15.121-4.133-18.473-6.458c-5.68-3.886-8.518-9.963-8.518-18.229
			c0-7.545,2.775-13.811,8.33-18.803c5.555-4.99,13.711-7.486,24.473-7.486c8.985,0,16.65,2.353,22.996,7.058
			c6.345,4.706,9.671,11.535,9.979,20.488H318.11c-0.312-5.066-2.58-8.667-6.798-10.802c-2.812-1.408-6.309-2.113-10.484-2.113
			c-4.648,0-8.359,0.914-11.135,2.743c-2.771,1.828-4.158,4.381-4.158,7.657c0,3.011,1.365,5.259,4.104,6.744
			c1.758,0.991,5.485,2.152,11.189,3.486l14.782,3.486c6.479,1.523,11.334,3.562,14.567,6.114c5.021,3.963,7.533,9.696,7.533,17.203
			c0,7.695-2.977,14.086-8.926,19.172c-5.949,5.088-14.354,7.631-25.215,7.631c-11.088,0-19.812-2.506-26.166-7.517
			c-6.354-5.009-9.53-11.895-9.53-20.659H284.68L284.68,69.52z"/>
		<path d="M343.952,95.521v-84.27h54.307v6.788h-46.35v30.431h42.136v6.789h-42.136v40.262H343.952L343.952,95.521z"/>
		<path d="M387.491,95.521l33.122-84.27h9.013l32.302,84.27h-8.188l-9.717-26.451h-38.39l-9.95,26.451H387.491z M408.324,62.282
			h33.005L424.827,18.04L408.324,62.282z"/>
		<path d="M467.896,95.521v-84.27h7.956v84.27H467.896z"/>
		<path d="M484.751,95.521v-84.27h7.959V88.73h45.176v6.789L484.751,95.521L484.751,95.521z"/>
	</g>
	<g display="inline">
		<path d="M316.118,109.898l-0.967,2.486h-31.386l-4.438,11.065h27.833l-0.886,2.483h-27.996l-5.889,14.582h-5.484l12.341-30.619
			L316.118,109.898L316.118,109.898z"/>
		<path d="M320.958,118.391l-8.954,22.127h-5.003l8.877-22.127H320.958z M324.427,109.898l-1.772,4.332h-5.082l1.774-4.332H324.427z
			"/>
		<path d="M333.464,118.391l-1.449,4.03h0.159c1.561-1.313,3.645-2.424,6.255-3.323c2.605-0.897,5.47-1.352,8.588-1.352
			c1.832,0,3.513,0.113,5.043,0.344c1.534,0.229,2.865,0.578,3.994,1.049c1.131,0.473,2.004,1.088,2.623,1.846
			c0.615,0.758,0.926,1.666,0.926,2.726c0,0.601-0.211,1.472-0.645,2.615l-5.727,14.192h-5.085l5.809-14.279
			c0.163-0.342,0.296-0.708,0.405-1.094c0.105-0.387,0.161-0.765,0.161-1.139c0-0.74-0.245-1.363-0.729-1.863
			s-1.13-0.908-1.938-1.224c-0.807-0.313-1.733-0.542-2.781-0.687c-1.051-0.145-2.14-0.213-3.269-0.213
			c-1.83,0-3.604,0.213-5.325,0.643c-1.724,0.428-3.308,1.036-4.761,1.82c-1.453,0.787-2.718,1.746-3.791,2.875
			c-1.076,1.129-1.884,2.395-2.422,3.795l-4.598,11.363h-5.002l8.873-22.127L333.464,118.391L333.464,118.391z"/>
		<path d="M369.079,121.734c1.051-0.914,2.354-1.664,3.913-2.252c1.562-0.584,3.337-1.021,5.327-1.308
			c1.987-0.284,4.086-0.429,6.291-0.429c1.398,0,2.944,0.07,4.639,0.214s3.268,0.399,4.721,0.771
			c1.452,0.373,2.661,0.873,3.632,1.502c0.97,0.629,1.453,1.443,1.453,2.444c0,0.543-0.097,1.144-0.282,1.802
			c-0.189,0.657-0.42,1.322-0.688,1.994c-0.268,0.672-0.551,1.329-0.846,1.974c-0.296,0.645-0.555,1.206-0.769,1.692
			c-0.483,1.229-0.897,2.252-1.248,3.066c-0.351,0.812-0.635,1.495-0.849,2.037c-0.217,0.543-0.377,0.984-0.485,1.33
			c-0.104,0.342-0.157,0.685-0.157,1.027c0,0.4,0.293,0.651,0.886,0.75c0.59,0.103,1.185,0.15,1.773,0.15
			c0.376,0,0.71-0.008,1.011-0.021c0.295-0.014,0.631-0.035,1.007-0.062l-0.728,2.102c-1.346,0.145-2.742,0.213-4.191,0.213
			c-2.854,0-4.33-0.782-4.44-2.357c0-0.198,0.016-0.398,0.043-0.6c0.024-0.199,0.067-0.399,0.121-0.601l-0.164-0.086
			c-1.45,1.284-3.495,2.281-6.129,2.979c-2.637,0.697-5.405,1.051-8.312,1.051c-1.938,0-3.711-0.115-5.324-0.346
			c-1.613-0.229-2.998-0.586-4.154-1.07s-2.072-1.115-2.744-1.887c-0.67-0.771-1.008-1.699-1.008-2.789
			c0-1.172,0.391-2.157,1.17-2.959c0.777-0.799,1.842-1.459,3.187-1.971c1.346-0.517,2.879-0.924,4.6-1.225
			c1.723-0.299,3.523-0.535,5.407-0.707c2.743-0.229,5.229-0.337,7.463-0.322c2.23,0.016,4.153-0.093,5.771-0.32
			c1.664-0.229,2.914-0.644,3.75-1.244c0.835-0.601,1.25-1.629,1.25-3.088c0-0.655-0.284-1.192-0.849-1.606
			c-0.562-0.413-1.263-0.735-2.097-0.965c-0.836-0.228-1.776-0.388-2.823-0.476c-1.049-0.082-2.058-0.125-3.024-0.125
			c-1.612,0-3.146,0.084-4.601,0.258c-1.451,0.172-2.771,0.449-3.953,0.834c-1.185,0.387-2.166,0.899-2.943,1.545
			c-0.779,0.645-1.306,1.425-1.572,2.339h-5.082C367.349,123.736,368.03,122.65,369.079,121.734z M392.035,128.596
			c-0.434,0.258-1.038,0.465-1.817,0.622c-0.778,0.157-1.602,0.278-2.459,0.364c-0.86,0.087-1.735,0.143-2.623,0.173
			c-0.885,0.028-1.655,0.056-2.3,0.086c-1.562,0.058-3.294,0.134-5.202,0.233c-1.91,0.103-3.701,0.314-5.364,0.645
			c-1.669,0.328-3.066,0.815-4.194,1.458c-1.13,0.642-1.696,1.552-1.696,2.724c0,0.716,0.255,1.324,0.771,1.822
			c0.51,0.5,1.193,0.916,2.056,1.244c0.86,0.328,1.855,0.562,2.987,0.708c1.129,0.144,2.282,0.214,3.47,0.214
			c4.086,0,7.392-0.585,9.921-1.758s4.195-2.746,5.002-4.718l1.614-3.731L392.035,128.596z"/>
		<path d="M414.622,118.391l-1.451,4.03h0.16c1.56-1.313,3.644-2.424,6.254-3.323c2.607-0.897,5.471-1.352,8.591-1.352
			c1.829,0,3.513,0.113,5.042,0.344c1.533,0.229,2.867,0.578,3.994,1.049c1.13,0.473,2.004,1.088,2.623,1.846
			c0.615,0.758,0.928,1.666,0.928,2.726c0,0.601-0.214,1.472-0.646,2.615l-5.729,14.192h-5.084l5.811-14.279
			c0.162-0.342,0.296-0.708,0.401-1.094c0.108-0.387,0.163-0.765,0.163-1.139c0-0.74-0.245-1.363-0.727-1.863
			c-0.485-0.5-1.13-0.908-1.938-1.224c-0.804-0.313-1.731-0.542-2.779-0.687s-2.14-0.213-3.269-0.213
			c-1.83,0-3.604,0.213-5.326,0.643c-1.721,0.428-3.307,1.036-4.76,1.82c-1.452,0.787-2.718,1.746-3.791,2.875
			c-1.076,1.129-1.883,2.395-2.422,3.795l-4.598,11.363h-5.003l8.875-22.127L414.622,118.391L414.622,118.391z"/>
		<path d="M476.825,123.064c-0.483-0.655-1.17-1.207-2.057-1.65c-0.891-0.441-1.967-0.786-3.229-1.028
			c-1.268-0.243-2.65-0.362-4.157-0.362c-3.062,0-5.714,0.355-7.942,1.068c-2.234,0.717-4.104,1.646-5.609,2.789
			c-1.504,1.145-2.622,2.432-3.346,3.86c-0.729,1.429-1.092,2.856-1.092,4.286c0,0.975,0.229,1.881,0.688,2.725
			c0.455,0.844,1.17,1.574,2.137,2.188c0.967,0.615,2.179,1.095,3.631,1.437c1.451,0.344,3.174,0.517,5.163,0.517
			c3.391,0,6.252-0.517,8.595-1.545c2.34-1.029,4.046-2.357,5.119-3.988h5.085c-1.56,2.574-3.928,4.515-7.101,5.812
			c-3.172,1.301-7.287,1.95-12.342,1.95c-5.166,0-9.133-0.828-11.901-2.487c-2.771-1.656-4.152-3.859-4.152-6.604
			c0-1.719,0.509-3.432,1.528-5.146c1.022-1.717,2.502-3.244,4.44-4.589c1.935-1.344,4.302-2.438,7.098-3.28
			c2.798-0.844,5.972-1.266,9.522-1.266c2.256,0,4.354,0.148,6.291,0.452c1.936,0.297,3.602,0.764,5.001,1.392
			c1.396,0.631,2.476,1.416,3.229,2.359c0.753,0.941,1.104,2.057,1.047,3.345h-5.081
			C477.497,124.465,477.31,123.723,476.825,123.064z"/>
		<path d="M489.247,131.898c0,1,0.242,1.931,0.727,2.787c0.486,0.858,1.227,1.597,2.221,2.209c0.993,0.613,2.26,1.101,3.791,1.459
			c1.534,0.356,3.32,0.535,5.365,0.535c3.392,0,6.266-0.509,8.635-1.521c2.364-1.017,4.031-2.339,5-3.97h5.086
			c-1.402,2.518-3.658,4.434-6.779,5.746c-3.119,1.315-7.18,1.976-12.182,1.976c-5.54,0-9.75-0.828-12.625-2.487
			c-2.879-1.656-4.316-3.945-4.316-6.861c0-1.771,0.492-3.496,1.492-5.168c0.994-1.67,2.458-3.166,4.396-4.479
			c1.938-1.315,4.303-2.372,7.101-3.175c2.797-0.799,5.97-1.199,9.521-1.199c2.528,0,4.76,0.207,6.697,0.621
			c1.935,0.417,3.59,1.001,4.962,1.761c1.37,0.757,2.405,1.663,3.106,2.722c0.693,1.06,1.048,2.23,1.048,3.518
			c0,0.629-0.029,1.26-0.079,1.889c-0.055,0.629-0.164,1.271-0.324,1.93H489.49C489.329,130.698,489.247,131.27,489.247,131.898z
			 M517.365,127.03c0.024-0.271,0.039-0.55,0.039-0.835c0-1.887-1.008-3.389-3.025-4.504c-2.017-1.114-4.8-1.67-8.349-1.67
			c-2.101,0-4.021,0.221-5.77,0.662c-1.749,0.442-3.311,1.029-4.683,1.758c-1.37,0.73-2.516,1.564-3.428,2.51
			c-0.915,0.945-1.59,1.932-2.018,2.96h27.188C517.323,127.596,517.339,127.303,517.365,127.03z"/>
	</g>
	<circle display="inline" fill="#7CBE68" cx="33.996" cy="30.802" r="20.395"/>
	<circle display="inline" fill="#989EA6" cx="33.996" cy="76.081" r="20.395"/>
	<g display="inline">
		<polygon fill="#FFFFFF" points="25.686,67.503 25.688,67.503 25.684,67.501 		"/>
		<path fill="#FFFFFF" d="M43.209,87.584c-0.057-0.199-0.173-0.48-0.316-0.844c-0.15-0.357-0.351-0.785-0.592-1.271
			c-0.246-0.478-0.526-1.021-0.855-1.597c-0.329-0.576-0.693-1.197-1.091-1.848c-0.393-0.649-0.833-1.32-1.288-2.014
			c-0.905-1.389-1.922-2.834-2.97-4.258c-0.059-0.08-0.118-0.158-0.175-0.234c0.951-1.059,1.855-2.033,2.633-2.856
			c1.484-1.576,2.503-2.599,2.503-2.599l-0.394-0.438c0,0-2.53,2.053-5.568,4.787c-0.196-0.26-0.391-0.516-0.588-0.768
			c-0.54-0.684-1.073-1.354-1.603-1.998c-0.523-0.646-1.042-1.263-1.543-1.842c-0.506-0.572-0.996-1.106-1.459-1.596
			c-0.467-0.49-0.901-0.938-1.314-1.32c-0.404-0.385-0.787-0.711-1.135-0.981c-0.158-0.134-0.356-0.253-0.507-0.356
			c-0.046-0.029-0.061-0.044-0.125-0.078c-0.061-0.033-0.12-0.062-0.177-0.092c-0.118-0.055-0.225-0.101-0.32-0.139
			c-0.116-0.038-0.143-0.073-0.192-0.025c-0.028,0.042-0.051,0.062-0.082,0.116c-0.031,0.065-0.061,0.125-0.086,0.179
			c-0.011,0.026-0.025,0.051-0.036,0.074c-0.015,0.04-0.029,0.076-0.042,0.11c-0.027,0.073-0.049,0.133-0.067,0.185
			c-0.036,0.099-0.055,0.147-0.055,0.147l-0.108,0.49c0,0-0.006,0.053-0.015,0.156c-0.006,0.053-0.012,0.118-0.019,0.198
			c-0.002,0.036-0.006,0.076-0.012,0.116c0,0.027,0,0.055,0,0.086c0,0.059,0,0.125,0.002,0.199c0.004,0.064,0.015,0.093,0.025,0.144
			c0.025,0.065,0.087,0.049,0.063,0.063c-0.004,0.009-0.008,0.013-0.012,0.015c0.004,0,0.036,0.022,0.055,0.032
			c0.097,0.068,0.2,0.115,0.339,0.225c0.265,0.191,0.602,0.459,0.981,0.805c0.381,0.332,0.804,0.74,1.261,1.189
			c0.457,0.454,0.945,0.957,1.455,1.501c0.513,0.538,1.056,1.11,1.604,1.715c0.773,0.847,1.568,1.749,2.372,2.669
			c-0.598,0.553-1.206,1.118-1.806,1.697c-1.052,1.016-2.086,2.053-3.027,3.068c-0.941,1.019-1.789,2.014-2.475,2.943
			c-0.686,0.932-1.209,1.807-1.499,2.602c-0.08,0.176-0.124,0.402-0.172,0.568c-0.019,0.09-0.038,0.172-0.057,0.248
			c-0.009,0.09-0.017,0.174-0.022,0.247c-0.023,0.304-0.023,0.465-0.023,0.465l3.014-0.221c0,0,0.007-0.021-0.002-0.054
			c-0.002-0.014-0.006-0.022-0.012-0.036c0.004-0.026,0.01-0.058,0.014-0.085c0.015-0.072-0.002-0.127,0.04-0.246
			c0.049-0.208,0.15-0.494,0.305-0.842c0.156-0.352,0.364-0.752,0.621-1.189c0.51-0.876,1.204-1.893,2-2.956
			c0.794-1.067,1.692-2.181,2.614-3.28c0.501-0.596,1.008-1.184,1.511-1.758c2.272,2.652,4.503,5.352,6.086,7.445
			c0.395,0.523,0.754,1.006,1.063,1.439c0.305,0.438,0.564,0.82,0.775,1.145c0.202,0.324,0.366,0.582,0.458,0.766
			c0.097,0.182,0.15,0.277,0.15,0.277S43.274,87.78,43.209,87.584z"/>
	</g>
	<g id="Your_Icon_6_" display="inline">
		<path fill="#FFFFFF" d="M23.481,32.344c0,0,5.46,6.824,6.824,10.098c3.823-10.372,14.194-20.74,14.194-20.74
			s-5.458,3.818-14.194,14.734L23.481,32.344z"/>
	</g>
</g>
<g id="Layer_2">
	<g>
		<path d="M105.188,50.234c-4.931,4.115-11.973,6.172-21.126,6.172H66.523v30.289H49.036V2.456h36.168
			c8.34,0,14.988,2.172,19.944,6.516c4.959,4.343,7.438,11.066,7.438,20.173C112.586,39.09,110.119,46.118,105.188,50.234z
			 M91.753,19.887c-2.229-1.866-5.351-2.8-9.368-2.8H66.523V41.89h15.862c4.018,0,7.14-1.009,9.368-3.029
			c2.229-2.02,3.344-5.22,3.344-9.601C95.097,24.88,93.982,21.755,91.753,19.887z"/>
		<path d="M131.594,2.456h19.917l29.803,84.237h-19.088l-5.559-17.315h-31.021l-5.71,17.315h-18.411L131.594,2.456z M130.434,54.863
			h21.574l-10.642-33.146L130.434,54.863z"/>
		<path d="M196.523,60.692c0.545,3.85,1.614,6.726,3.209,8.63c2.918,3.467,7.916,5.199,14.997,5.199
			c4.239,0,7.683-0.457,10.328-1.371c5.019-1.752,7.527-5.008,7.527-9.771c0-2.78-1.23-4.935-3.688-6.458
			c-2.459-1.486-6.357-2.801-11.695-3.943l-9.12-2c-8.964-1.98-15.121-4.133-18.474-6.458c-5.678-3.886-8.515-9.963-8.515-18.23
			c0-7.544,2.776-13.81,8.33-18.802C194.976,2.495,203.133,0,213.894,0c8.986,0,16.651,2.353,22.996,7.058
			c6.345,4.706,9.672,11.535,9.98,20.488h-16.916c-0.312-5.066-2.578-8.667-6.796-10.802c-2.813-1.408-6.309-2.113-10.487-2.113
			c-4.648,0-8.358,0.914-11.133,2.742c-2.773,1.829-4.159,4.382-4.159,7.658c0,3.011,1.367,5.258,4.102,6.744
			c1.757,0.991,5.487,2.152,11.191,3.486l14.782,3.485c6.479,1.524,11.336,3.563,14.569,6.115c5.021,3.963,7.532,9.696,7.532,17.202
			c0,7.696-2.976,14.087-8.925,19.173c-5.95,5.087-14.354,7.63-25.214,7.63c-11.09,0-19.812-2.507-26.166-7.517
			c-6.354-5.009-9.531-11.896-9.531-20.659L196.523,60.692L196.523,60.692z"/>
		<path d="M271.078,60.692c0.545,3.85,1.613,6.726,3.208,8.63c2.918,3.467,7.916,5.199,14.998,5.199
			c4.237,0,7.682-0.457,10.325-1.371c5.021-1.752,7.527-5.008,7.527-9.771c0-2.78-1.229-4.935-3.688-6.458
			c-2.459-1.486-6.357-2.801-11.695-3.943l-9.119-2c-8.964-1.98-15.121-4.133-18.474-6.458c-5.678-3.886-8.516-9.963-8.516-18.23
			c0-7.544,2.777-13.81,8.332-18.802C269.531,2.495,277.688,0,288.448,0c8.985,0,16.651,2.353,22.996,7.058
			c6.346,4.706,9.672,11.535,9.979,20.488h-16.916c-0.312-5.066-2.578-8.667-6.797-10.802c-2.811-1.408-6.307-2.113-10.484-2.113
			c-4.649,0-8.358,0.914-11.135,2.742c-2.771,1.829-4.158,4.382-4.158,7.658c0,3.011,1.365,5.258,4.102,6.744
			c1.758,0.991,5.488,2.152,11.191,3.486l14.78,3.485c6.48,1.524,11.336,3.563,14.57,6.115c5.021,3.963,7.531,9.696,7.531,17.202
			c0,7.696-2.978,14.087-8.925,19.173c-5.95,5.087-14.354,7.63-25.215,7.63c-11.09,0-19.812-2.507-26.166-7.517
			c-6.354-5.009-9.531-11.896-9.531-20.659L271.078,60.692L271.078,60.692z"/>
		<path d="M330.351,86.695V2.425h54.308v6.788h-46.351v30.431h42.136v6.789h-42.136v40.262H330.351z"/>
		<path d="M373.89,86.695l33.123-84.271h9.013l32.303,84.271h-8.191l-9.715-26.451H392.03l-9.949,26.451H373.89z M394.724,53.454
			h33.004L411.226,9.213L394.724,53.454z"/>
		<path d="M454.296,86.695V2.425h7.959v84.271H454.296z"/>
		<path d="M471.149,86.695V2.425h7.959v77.479h45.176v6.789L471.149,86.695L471.149,86.695z"/>
	</g>
	<g>
		<path d="M302.518,101.072l-0.97,2.486h-31.382l-4.438,11.063h27.832l-0.887,2.485h-27.996l-5.891,14.582h-5.484l12.341-30.619
			L302.518,101.072L302.518,101.072z"/>
		<path d="M307.356,109.562l-8.954,22.129h-5.004l8.877-22.129H307.356z M310.825,101.072l-1.773,4.332h-5.081l1.774-4.332H310.825z
			"/>
		<path d="M319.862,109.562l-1.449,4.031h0.158c1.561-1.313,3.645-2.424,6.256-3.322c2.604-0.899,5.469-1.353,8.588-1.353
			c1.832,0,3.512,0.114,5.043,0.345c1.535,0.229,2.865,0.577,3.994,1.049c1.131,0.472,2.004,1.088,2.623,1.845
			c0.615,0.757,0.926,1.666,0.926,2.726c0,0.6-0.211,1.473-0.645,2.614l-5.728,14.194h-5.084l5.807-14.28
			c0.164-0.343,0.298-0.708,0.406-1.093c0.107-0.387,0.162-0.766,0.162-1.139c0-0.742-0.246-1.363-0.729-1.863
			c-0.484-0.5-1.13-0.909-1.938-1.225c-0.805-0.312-1.731-0.542-2.781-0.687c-1.051-0.145-2.139-0.214-3.27-0.214
			c-1.828,0-3.604,0.214-5.324,0.644c-1.723,0.429-3.307,1.035-4.76,1.821c-1.453,0.785-2.717,1.744-3.791,2.874
			c-1.076,1.129-1.885,2.395-2.422,3.795l-4.599,11.364h-5.002l8.873-22.129L319.862,109.562L319.862,109.562z"/>
		<path d="M355.478,112.906c1.052-0.913,2.355-1.664,3.914-2.251c1.562-0.585,3.336-1.021,5.324-1.308
			c1.99-0.285,4.088-0.43,6.293-0.43c1.398,0,2.945,0.071,4.64,0.214c1.693,0.144,3.268,0.4,4.721,0.771
			c1.453,0.373,2.662,0.873,3.631,1.503c0.971,0.628,1.455,1.442,1.455,2.444c0,0.543-0.098,1.144-0.283,1.801
			c-0.19,0.658-0.42,1.322-0.688,1.994s-0.552,1.33-0.847,1.974c-0.297,0.646-0.555,1.207-0.768,1.692
			c-0.486,1.229-0.9,2.252-1.25,3.066c-0.351,0.812-0.633,1.494-0.848,2.036c-0.218,0.543-0.375,0.985-0.484,1.33
			c-0.105,0.343-0.158,0.687-0.158,1.028c0,0.4,0.293,0.651,0.887,0.75c0.589,0.103,1.185,0.15,1.773,0.15
			c0.377,0,0.711-0.009,1.01-0.021c0.295-0.014,0.631-0.035,1.008-0.062l-0.729,2.102c-1.344,0.145-2.742,0.213-4.193,0.213
			c-2.852,0-4.328-0.783-4.438-2.357c0-0.197,0.014-0.398,0.043-0.6c0.022-0.2,0.065-0.399,0.121-0.601l-0.164-0.086
			c-1.453,1.284-3.496,2.281-6.129,2.979c-2.638,0.697-5.406,1.05-8.312,1.05c-1.938,0-3.711-0.114-5.324-0.345
			c-1.612-0.229-2.998-0.586-4.153-1.071c-1.156-0.483-2.072-1.114-2.744-1.886c-0.67-0.771-1.008-1.7-1.008-2.788
			c0-1.173,0.391-2.158,1.17-2.959c0.776-0.8,1.842-1.459,3.186-1.972c1.347-0.517,2.879-0.924,4.601-1.225
			c1.723-0.3,3.522-0.535,5.405-0.707c2.744-0.229,5.23-0.337,7.464-0.322c2.229,0.017,4.153-0.093,5.771-0.32
			c1.664-0.229,2.914-0.644,3.75-1.244c0.834-0.6,1.248-1.629,1.248-3.088c0-0.656-0.283-1.192-0.846-1.606
			c-0.562-0.413-1.265-0.735-2.099-0.965c-0.836-0.228-1.774-0.388-2.821-0.476c-1.052-0.082-2.06-0.125-3.027-0.125
			c-1.611,0-3.146,0.084-4.598,0.258c-1.451,0.171-2.773,0.449-3.955,0.835c-1.185,0.386-2.166,0.899-2.943,1.543
			c-0.781,0.646-1.305,1.426-1.574,2.34h-5.08C353.747,114.907,354.429,113.823,355.478,112.906z M378.435,119.77
			c-0.434,0.258-1.038,0.465-1.817,0.621c-0.779,0.157-1.603,0.278-2.459,0.364c-0.861,0.087-1.736,0.144-2.623,0.173
			c-0.885,0.027-1.656,0.057-2.299,0.086c-1.562,0.059-3.295,0.135-5.203,0.232c-1.91,0.104-3.701,0.316-5.365,0.646
			c-1.668,0.327-3.066,0.813-4.195,1.457c-1.129,0.643-1.694,1.551-1.694,2.724c0,0.715,0.256,1.323,0.768,1.823
			c0.512,0.498,1.197,0.914,2.06,1.244c0.858,0.327,1.854,0.562,2.983,0.707c1.129,0.144,2.285,0.215,3.473,0.215
			c4.087,0,7.392-0.586,9.921-1.758c2.526-1.174,4.194-2.746,5.002-4.719l1.612-3.73L378.435,119.77z"/>
		<path d="M401.021,109.562l-1.451,4.031h0.16c1.561-1.313,3.645-2.424,6.254-3.322c2.606-0.899,5.471-1.353,8.592-1.353
			c1.828,0,3.512,0.114,5.041,0.345c1.533,0.229,2.867,0.577,3.994,1.049c1.131,0.472,2.004,1.088,2.623,1.845
			c0.614,0.757,0.928,1.666,0.928,2.726c0,0.6-0.215,1.473-0.646,2.614l-5.727,14.194h-5.086l5.811-14.28
			c0.162-0.343,0.295-0.708,0.402-1.093c0.109-0.387,0.162-0.766,0.162-1.139c0-0.742-0.242-1.363-0.728-1.863
			c-0.484-0.5-1.129-0.909-1.938-1.225c-0.805-0.312-1.732-0.542-2.781-0.687c-1.047-0.145-2.137-0.214-3.268-0.214
			c-1.83,0-3.604,0.214-5.326,0.644c-1.721,0.429-3.307,1.035-4.758,1.821c-1.453,0.785-2.72,1.744-3.793,2.874
			c-1.076,1.129-1.883,2.395-2.42,3.795l-4.601,11.364h-5.002l8.875-22.129L401.021,109.562L401.021,109.562z"/>
		<path d="M463.224,114.238c-0.481-0.657-1.17-1.207-2.057-1.651c-0.891-0.44-1.965-0.786-3.229-1.028
			c-1.266-0.242-2.649-0.363-4.155-0.363c-3.062,0-5.715,0.356-7.943,1.07c-2.233,0.717-4.104,1.646-5.608,2.789
			s-2.623,2.43-3.347,3.858c-0.729,1.43-1.092,2.858-1.092,4.288c0,0.974,0.229,1.879,0.688,2.724
			c0.455,0.845,1.171,1.573,2.138,2.188s2.18,1.093,3.631,1.436c1.451,0.344,3.174,0.518,5.164,0.518
			c3.389,0,6.252-0.518,8.594-1.545c2.338-1.029,4.045-2.358,5.119-3.988h5.086c-1.561,2.574-3.928,4.514-7.102,5.812
			c-3.173,1.301-7.287,1.949-12.343,1.949c-5.166,0-9.133-0.828-11.901-2.486c-2.771-1.658-4.152-3.859-4.152-6.604
			c0-1.718,0.51-3.433,1.529-5.146c1.022-1.718,2.502-3.246,4.438-4.59c1.937-1.345,4.304-2.438,7.101-3.281
			c2.797-0.842,5.971-1.265,9.521-1.265c2.256,0,4.354,0.148,6.291,0.451c1.937,0.298,3.603,0.765,5.002,1.394
			c1.396,0.629,2.476,1.416,3.229,2.357c0.754,0.943,1.102,2.059,1.047,3.346h-5.08
			C463.896,115.639,463.708,114.895,463.224,114.238z"/>
		<path d="M475.646,123.07c0,1.002,0.241,1.932,0.727,2.789c0.486,0.857,1.225,1.595,2.219,2.209c0.996,0.613,2.262,1.1,3.793,1.457
			c1.533,0.357,3.32,0.537,5.365,0.537c3.391,0,6.266-0.51,8.635-1.522c2.363-1.015,4.031-2.338,5-3.968h5.084
			c-1.399,2.517-3.658,4.433-6.778,5.746c-3.117,1.314-7.179,1.975-12.183,1.975c-5.539,0-9.748-0.828-12.625-2.486
			s-4.315-3.945-4.315-6.861c0-1.772,0.493-3.496,1.491-5.168c0.996-1.672,2.459-3.166,4.396-4.48
			c1.936-1.314,4.303-2.372,7.1-3.175c2.797-0.798,5.97-1.199,9.521-1.199c2.526,0,4.76,0.207,6.695,0.62
			c1.936,0.418,3.59,1.002,4.963,1.762c1.368,0.756,2.403,1.663,3.104,2.721c0.695,1.06,1.049,2.231,1.049,3.518
			c0,0.63-0.028,1.262-0.08,1.891c-0.055,0.627-0.163,1.271-0.321,1.928H475.89C475.728,121.869,475.646,122.443,475.646,123.07z
			 M503.765,118.201c0.025-0.271,0.039-0.551,0.039-0.835c0-1.888-1.008-3.39-3.024-4.505c-2.018-1.114-4.801-1.67-8.351-1.67
			c-2.1,0-4.021,0.221-5.77,0.664c-1.748,0.441-3.31,1.028-4.683,1.756c-1.37,0.731-2.514,1.565-3.428,2.51
			c-0.914,0.945-1.59,1.934-2.016,2.96h27.188C503.722,118.77,503.737,118.477,503.765,118.201z"/>
	</g>
	<circle fill="#7CBE68" cx="20.395" cy="21.973" r="20.395"/>
	<circle fill="#989EA6" cx="20.395" cy="67.253" r="20.395"/>
	<g>
		<polygon fill="#FFFFFF" points="12.085,58.676 12.087,58.676 12.083,58.674 		"/>
		<path fill="#FFFFFF" d="M29.608,78.757c-0.058-0.198-0.174-0.481-0.316-0.845c-0.15-0.355-0.351-0.784-0.592-1.27
			c-0.246-0.478-0.526-1.021-0.855-1.597c-0.33-0.575-0.693-1.196-1.092-1.847c-0.393-0.65-0.833-1.321-1.288-2.014
			c-0.904-1.39-1.922-2.834-2.97-4.258c-0.059-0.08-0.118-0.158-0.175-0.234c0.95-1.059,1.855-2.033,2.632-2.857
			c1.484-1.576,2.504-2.598,2.504-2.598L27.061,60.8c0,0-2.53,2.053-5.568,4.787c-0.196-0.26-0.391-0.516-0.589-0.767
			c-0.539-0.684-1.072-1.355-1.602-1.998c-0.524-0.646-1.042-1.263-1.543-1.842c-0.507-0.573-0.996-1.107-1.459-1.596
			c-0.467-0.49-0.901-0.937-1.314-1.32c-0.404-0.385-0.787-0.712-1.136-0.982c-0.158-0.134-0.356-0.254-0.507-0.356
			c-0.046-0.029-0.061-0.044-0.126-0.078c-0.061-0.033-0.12-0.062-0.177-0.092c-0.118-0.055-0.225-0.102-0.32-0.139
			c-0.116-0.038-0.143-0.073-0.192-0.025c-0.028,0.042-0.051,0.061-0.082,0.116c-0.03,0.065-0.061,0.125-0.085,0.179
			c-0.012,0.026-0.025,0.051-0.036,0.074c-0.016,0.04-0.029,0.076-0.042,0.109c-0.027,0.074-0.05,0.134-0.067,0.186
			c-0.036,0.099-0.055,0.146-0.055,0.146l-0.109,0.491c0,0-0.005,0.052-0.015,0.156c-0.006,0.052-0.012,0.118-0.02,0.198
			c-0.002,0.036-0.005,0.076-0.011,0.115c0,0.029,0,0.056,0,0.087c0,0.059,0,0.125,0.002,0.199c0.004,0.065,0.015,0.093,0.024,0.144
			c0.024,0.065,0.088,0.049,0.062,0.064c-0.003,0.008-0.007,0.012-0.011,0.014c0.004,0,0.036,0.022,0.055,0.031
			c0.098,0.069,0.2,0.116,0.34,0.226c0.265,0.191,0.602,0.459,0.98,0.804c0.381,0.333,0.804,0.741,1.261,1.19
			c0.458,0.454,0.945,0.957,1.456,1.501c0.512,0.538,1.055,1.11,1.604,1.715c0.773,0.846,1.568,1.749,2.372,2.669
			c-0.599,0.551-1.206,1.117-1.806,1.696c-1.052,1.017-2.086,2.054-3.027,3.069c-0.941,1.018-1.789,2.013-2.475,2.943
			c-0.686,0.93-1.21,1.807-1.499,2.601c-0.08,0.176-0.124,0.403-0.172,0.569c-0.019,0.09-0.038,0.172-0.057,0.248
			c-0.01,0.09-0.018,0.172-0.023,0.246c-0.022,0.305-0.022,0.465-0.022,0.465l3.014-0.221c0,0,0.008-0.02-0.002-0.055
			c-0.002-0.012-0.006-0.021-0.012-0.035c0.004-0.025,0.01-0.057,0.014-0.085c0.016-0.072-0.002-0.128,0.04-0.246
			c0.05-0.208,0.15-0.494,0.305-0.843c0.156-0.35,0.364-0.751,0.621-1.188c0.511-0.877,1.204-1.895,2-2.957
			c0.795-1.066,1.691-2.181,2.613-3.279c0.501-0.596,1.008-1.185,1.511-1.758c2.273,2.651,4.504,5.351,6.087,7.444
			c0.394,0.522,0.754,1.007,1.062,1.44c0.305,0.438,0.564,0.82,0.775,1.144c0.202,0.323,0.366,0.582,0.457,0.767
			c0.098,0.181,0.15,0.276,0.15,0.276S29.672,78.951,29.608,78.757z"/>
	</g>
	<g id="Your_Icon_5_">
		<path fill="#FFFFFF" d="M9.88,23.516c0,0,5.459,6.824,6.823,10.098c3.824-10.372,14.195-20.739,14.195-20.739
			s-5.458,3.818-14.194,14.734L9.88,23.516z"/>
	</g>
</g>
</svg>
